<svg width="200" height="200" viewBox="0 0 20 20" xmlns="http://www.w3.org/2000/svg" shape-rendering="crispEdges">
  <defs>
    <style type="text/css">
      .crust { fill: #d9a066; }
      .outline { fill: #663300; }
      .sauce { fill: #cc0000; }
      .cheese { fill: #ffcc00; }
.pepper { fill: #00cc00; }
    </style>
  </defs>

  <rect x="7" y="0" width="6" height="1" class="outline"/>
  <rect x="4" y="1" width="3" height="1" class="outline"/>
  <rect x="13" y="1" width="3" height="1" class="outline"/>
  <rect x="2" y="2" width="2" height="1" class="outline"/>
  <rect x="16" y="2" width="2" height="1" class="outline"/>
  <rect x="1" y="3" width="1" height="1" class="outline"/>
  <rect x="18" y="3" width="1" height="1" class="outline"/>
  <rect x="0" y="4" width="1" height="3" class="outline"/>
  <rect x="19" y="4" width="1" height="3" class="outline"/>
  <rect x="0" y="7" width="1" height="6" class="outline"/>
  <rect x="19" y="7" width="1" height="6" class="outline"/>
  <rect x="0" y="13" width="1" height="3" class="outline"/>
  <rect x="19" y="13" width="1" height="3" class="outline"/>
  <rect x="1" y="16" width="1" height="1" class="outline"/>
  <rect x="18" y="16" width="1" height="1" class="outline"/>
  <rect x="2" y="17" width="2" height="1" class="outline"/>
  <rect x="16" y="17" width="2" height="1" class="outline"/>
  <rect x="4" y="18" width="3" height="1" class="outline"/>
  <rect x="13" y="18" width="3" height="1" class="outline"/>
  <rect x="7" y="19" width="6" height="1" class="outline"/>

  <rect x="7" y="1" width="6" height="1" class="crust"/>
  <rect x="4" y="2" width="3" height="1" class="crust"/>
  <rect x="13" y="2" width="3" height="1" class="crust"/>
  <rect x="2" y="3" width="2" height="1" class="crust"/>
  <rect x="16" y="3" width="2" height="1" class="crust"/>
  <rect x="1" y="4" width="1" height="3" class="crust"/>
  <rect x="18" y="4" width="1" height="3" class="crust"/>
  <rect x="1" y="7" width="1" height="6" class="crust"/>
  <rect x="18" y="7" width="1" height="6" class="crust"/>
  <rect x="1" y="13" width="1" height="3" class="crust"/>
  <rect x="18" y="13" width="1" height="3" class="crust"/>
  <rect x="2" y="16" width="2" height="1" class="crust"/>
  <rect x="16" y="16" width="2" height="1" class="crust"/>
  <rect x="4" y="17" width="3" height="1" class="crust"/>
  <rect x="13" y="17" width="3" height="1" class="crust"/>
  <rect x="7" y="18" width="6" height="1" class="crust"/>

  <rect x="7" y="2" width="6" height="1" class="cheese"/>
  <rect x="4" y="3" width="12" height="1" class="cheese"/>
  <rect x="2" y="4" width="16" height="3" class="cheese"/>
  <rect x="2" y="7" width="16" height="6" class="cheese"/>
  <rect x="2" y="13" width="16" height="3" class="cheese"/>
  <rect x="4" y="16" width="12" height="1" class="cheese"/>
  <rect x="7" y="17" width="6" height="1" class="cheese"/>

  <rect x="6" y="4" width="2" height="2" class="sauce"/>
  <rect x="13" y="5" width="2" height="2" class="sauce"/>
  <rect x="9" y="8" width="2" height="2" class="sauce"/>
  <rect x="4" y="10" width="2" height="2" class="sauce"/>
  <rect x="14" y="11" width="2" height="2" class="sauce"/>
  <rect x="8" y="14" width="2" height="2" class="sauce"/>

  <rect x="10" y="4" width="1" height="1" class="pepper"/>
  <rect x="5" y="7" width="1" height="1" class="pepper"/>
  <rect x="16" y="8" width="1" height="1" class="pepper"/>
  <rect x="8" y="11" width="1" height="1" class="pepper"/>
  <rect x="12" y="13" width="1" height="1" class="pepper"/>
  <rect x="6" y="15" width="1" height="1" class="pepper"/>
  <rect x="14" y="15" width="1" height="1" class="pepper"/>
</svg>
